<?xml version="1.0" encoding="UTF-8" standalone="no"?>
<!-- Created with Inkscape (http://www.inkscape.org/) -->

<svg
   xmlns:dc="http://purl.org/dc/elements/1.1/"
   xmlns:cc="http://creativecommons.org/ns#"
   xmlns:rdf="http://www.w3.org/1999/02/22-rdf-syntax-ns#"
   xmlns:svg="http://www.w3.org/2000/svg"
   xmlns="http://www.w3.org/2000/svg"
   xmlns:sodipodi="http://sodipodi.sourceforge.net/DTD/sodipodi-0.dtd"
   xmlns:inkscape="http://www.inkscape.org/namespaces/inkscape"
   width="744.09448819"
   height="1052.3622047"
   id="svg4656"
   version="1.1"
   inkscape:version="0.48.2 r9819"
   sodipodi:docname="patter-top.svg"
   inkscape:export-filename="C:\z\proj\app.net\patter\patter-top.png"
   inkscape:export-xdpi="15"
   inkscape:export-ydpi="15">
  <defs
     id="defs4658" />
  <sodipodi:namedview
     id="base"
     pagecolor="#ffffff"
     bordercolor="#666666"
     borderopacity="1.0"
     inkscape:pageopacity="0.0"
     inkscape:pageshadow="2"
     inkscape:zoom="0.35"
     inkscape:cx="273.3235"
     inkscape:cy="188.51495"
     inkscape:document-units="px"
     inkscape:current-layer="layer4"
     showgrid="false"
     inkscape:window-width="1680"
     inkscape:window-height="997"
     inkscape:window-x="-4"
     inkscape:window-y="-4"
     inkscape:window-maximized="1" />
  <metadata
     id="metadata4661">
    <rdf:RDF>
      <cc:Work
         rdf:about="">
        <dc:format>image/svg+xml</dc:format>
        <dc:type
           rdf:resource="http://purl.org/dc/dcmitype/StillImage" />
        <dc:title></dc:title>
      </cc:Work>
    </rdf:RDF>
  </metadata>
  <g
     inkscape:groupmode="layer"
     id="layer4"
     inkscape:label="Background">
    <rect
       style="fill:#dcdcdc;fill-opacity:1;stroke:#000000;stroke-opacity:1;stroke-width:4;stroke-miterlimit:4;stroke-dasharray:none;stroke-linejoin:round"
       id="rect5191"
       width="643.57141"
       height="202.85715"
       x="-11.428574"
       y="806.64795" />
  </g>
  <g
     inkscape:label="Layer 1"
     inkscape:groupmode="layer"
     id="layer1">
    <path
       style="fill:#000000;fill-opacity:0.3764706"
       d="m 138.19202,994.57737 c -1.47674,-0.2198 -6.52618,-1.9609 -11.42962,-3.9411 -15.27267,-6.1676 -20.4925,-7.2545 -29.225863,-6.0856 -5.709793,0.7643 -8.856563,1.6336 -18.432573,5.0919 -8.87289,3.2044 -11.759699,3.9889 -16.777206,4.559 -7.006814,0.7962 -11.465007,-0.6153 -15.967197,-5.0552 -3.089763,-3.0471 -4.74383,-6.3797 -5.388997,-10.8578 -0.418242,-2.90316 -0.343832,-3.67686 0.801822,-8.33926 3.347178,-13.622 8.649398,-24.82089 17.531256,-37.02801 14.199848,-19.5162 39.782265,-27.00556 57.852668,-16.93665 10.38945,5.78902 19.63588,15.46518 30.51845,31.93683 12.50051,18.92053 15.54688,32.15239 9.34128,40.57399 -3.37884,4.5853 -11.42126,7.1839 -18.82402,6.0819 z M 30.966414,934.64668 c -4.130084,-1.4683 -5.66546,-2.34124 -9.477759,-5.38868 -8.674273,-6.93396 -13.7688399,-17.26679 -14.2942869,-28.99171 -0.5018289,-11.19747 2.652032,-18.02164 9.9440399,-21.51633 2.174807,-1.04229 3.445474,-1.32023 6.745946,-1.47559 3.541163,-0.16667 4.415321,-0.0505 6.767585,0.89967 6.927253,2.79802 13.883227,9.11331 18.233257,16.55373 5.561843,9.51324 6.749811,22.93854 2.794248,31.57856 -1.35896,2.96842 -5.074661,6.74199 -8.090428,8.21649 -3.520635,1.72136 -8.005218,1.76536 -12.622602,0.12386 z m 123.317706,-1.82953 c -8.23897,-2.19238 -14.092,-11.16042 -14.1123,-21.62281 -0.0354,-18.23556 12.49902,-35.50031 27.23697,-37.51586 8.78242,-1.20106 16.40078,5.00276 19.16487,15.60641 0.9855,3.78064 0.6541,11.665 -0.70649,16.80827 -3.28007,12.39911 -11.97206,22.84912 -21.46576,25.80737 -3.29388,1.02637 -8.07649,1.45968 -10.11729,0.91662 z M 65.713153,886.40978 c -3.181877,-1.32247 -8.656169,-5.02928 -10.746447,-7.27671 -5.041236,-5.42023 -8.68554,-12.92237 -10.487292,-21.58909 -0.897965,-4.3193 -0.889052,-13.71375 0.01659,-17.55655 1.672716,-7.09722 6.223813,-13.39977 11.673556,-16.16606 2.507525,-1.27281 3.641791,-1.57248 6.429857,-1.6987 2.939925,-0.13311 3.839902,0.0275 6.842177,1.22131 7.46009,2.96635 12.54619,7.8606 16.59004,15.96432 3.37581,6.76505 4.91858,13.44901 4.91415,21.29048 -0.005,8.7611 -2.34549,15.7588 -7.00389,20.94004 -4.81843,5.35923 -12.265968,7.34932 -18.22882,4.87096 z m 52.265117,0.24554 c -9.41157,-3.46855 -15.3066,-12.62582 -16.20627,-25.17437 -0.88371,-12.32698 4.76162,-27.208 12.94847,-34.13173 5.32436,-4.50294 11.29054,-6.66642 16.15893,-5.8597 4.2701,0.70758 6.89551,2.14459 10.44784,5.71869 4.7531,4.78217 6.93814,9.90769 7.73789,18.15108 1.02316,10.54579 -1.66818,21.81064 -7.01406,29.35843 -6.79668,9.59612 -16.87084,14.59184 -24.0728,11.9376 z"
       id="path4654"
       inkscape:connector-curvature="0" />
    <text
       xml:space="preserve"
       style="font-size:240px;font-style:normal;font-variant:normal;font-weight:normal;font-stretch:normal;text-align:start;line-height:125%;letter-spacing:0px;word-spacing:0px;writing-mode:lr-tb;text-anchor:start;fill:#000000;fill-opacity:0.78431374;stroke:none;font-family:Amienne;-inkscape-font-specification:Amienne"
       x="219.85712"
       y="966.39563"
       id="text5193"
       sodipodi:linespacing="125%"><tspan
         sodipodi:role="line"
         id="tspan5195"
         x="219.85712"
         y="966.39563"
         style="font-size:240px;font-style:normal;font-variant:normal;font-weight:normal;font-stretch:normal;text-align:start;line-height:125%;writing-mode:lr-tb;text-anchor:start;fill:#000000;fill-opacity:0.78431374;font-family:Amienne;-inkscape-font-specification:Amienne">Patter</tspan></text>
  </g>
</svg>
